<?xml version="1.0" standalone="no"?>
<!DOCTYPE svg PUBLIC "-//W3C//DTD SVG 20010904//EN"
 "http://www.w3.org/TR/2001/REC-SVG-20010904/DTD/svg10.dtd">
<svg version="1.0" xmlns="http://www.w3.org/2000/svg"
 width="1080.000000pt" height="1080.000000pt" viewBox="0 0 1080.000000 1080.000000"
 preserveAspectRatio="xMidYMid meet">

<g transform="translate(0.000000,1080.000000) scale(0.100000,-0.100000)"
fill="#000000" stroke="none">
<path d="M5174 9759 c-752 -48 -1497 -349 -2064 -833 -30 -25 -57 -45 -61 -44
-4 2 -115 118 -247 258 -131 141 -254 269 -273 284 l-34 28 -43 -48 c-90 -99
-138 -236 -129 -369 9 -155 84 -319 228 -504 l77 -100 -45 -58 c-76 -98 -235
-342 -300 -464 -207 -381 -335 -778 -400 -1240 -25 -177 -25 -700 0 -879 95
-674 344 -1258 755 -1769 l84 -105 -63 -61 c-35 -33 -111 -104 -168 -157
l-104 -97 31 -63 c58 -118 187 -248 308 -313 l49 -26 75 78 c41 43 115 120
163 171 l87 93 108 -84 c548 -429 1170 -678 1867 -747 154 -16 506 -16 660 0
689 68 1325 323 1868 749 65 51 122 91 127 89 4 -2 79 -78 165 -170 87 -93
162 -168 167 -168 21 0 127 63 186 111 73 58 153 154 187 224 l25 50 -112 105
c-62 57 -143 134 -180 170 l-67 65 65 80 c310 383 545 846 669 1320 73 280
104 505 112 806 19 745 -181 1433 -599 2058 l-89 134 303 305 c167 167 294
301 283 298 -11 -3 -78 -19 -149 -35 l-130 -30 -201 -201 c-110 -110 -205
-200 -210 -199 -6 0 -27 21 -48 46 l-39 46 294 294 293 293 -95 -26 c-209 -56
-175 -34 -392 -252 l-198 -197 -47 48 -48 47 290 290 289 289 -129 -34 c-72
-19 -134 -35 -139 -35 -6 0 -103 -92 -216 -205 l-206 -205 -51 43 -51 44 294
294 c161 161 292 294 291 295 -1 1 -67 -12 -146 -31 l-144 -33 -212 -212 -212
-212 -94 67 c-436 310 -981 526 -1524 604 -250 36 -493 46 -741 30z m708 -168
c545 -82 1033 -274 1471 -579 l79 -55 -334 -334 c-183 -184 -389 -388 -458
-453 l-126 -118 -154 77 c-750 375 -1643 281 -2295 -243 l-69 -56 -22 22 c-11
13 -101 113 -199 223 -99 110 -278 310 -399 444 -122 133 -221 246 -221 250 0
11 113 105 230 192 466 346 1056 578 1640 643 195 22 674 15 857 -13z m-3419
-217 c-107 -234 -52 -493 170 -794 36 -49 52 -78 46 -85 -7 -6 -12 -6 -17 0
-4 6 -32 44 -63 85 -150 202 -213 362 -213 540 1 113 18 179 69 267 35 59 39
54 8 -13z m5153 -566 l45 -43 -444 -442 c-244 -244 -449 -443 -456 -443 -7 0
-33 17 -58 37 l-44 37 448 448 c246 246 452 448 456 448 5 0 28 -19 53 -42z
m204 -193 l45 -45 -448 -448 -447 -447 -47 48 -48 47 445 445 c245 245 447
445 450 445 3 0 26 -20 50 -45z m212 -229 l21 -28 -449 -449 c-247 -247 -451
-449 -454 -449 -3 0 -23 23 -44 51 l-38 52 448 448 448 448 24 -22 c13 -12 33
-35 44 -51z m-4922 -301 c138 -118 320 -258 503 -384 81 -57 147 -105 147
-107 0 -2 -66 40 -147 94 -173 116 -389 276 -523 387 -127 107 -321 296 -314
307 3 5 56 -40 117 -99 62 -60 159 -149 217 -198z m-283 154 c191 -176 468
-381 756 -563 l165 -103 -53 -71 c-558 -742 -564 -1776 -15 -2522 39 -52 70
-97 70 -101 0 -8 -905 -852 -919 -857 -12 -4 -143 158 -233 290 -309 446 -496
935 -574 1503 -25 182 -26 645 -1 830 78 583 291 1119 625 1575 40 55 77 100
82 100 4 0 48 -37 97 -81z m2853 -45 c218 -29 411 -90 615 -190 60 -30 111
-56 112 -58 2 -2 -10 -30 -26 -62 -16 -33 -34 -79 -40 -104 -25 -107 -2 -237
57 -330 l28 -45 -39 -49 c-49 -63 -46 -93 17 -153 58 -56 92 -57 153 -7 l44
36 40 -27 c125 -82 285 -91 428 -24 75 34 63 43 131 -96 262 -538 258 -1191
-10 -1730 -58 -117 -205 -345 -225 -352 -7 -2 -1083 990 -1322 1221 -10 9 49
77 273 316 278 296 288 305 328 308 36 3 50 12 119 80 43 42 83 87 88 100 14
37 -11 80 -94 160 -104 100 -113 100 -230 -17 -81 -81 -88 -92 -86 -123 3 -33
-7 -44 -304 -321 -169 -158 -311 -287 -317 -287 -5 0 -147 129 -315 286 -296
277 -305 286 -305 323 0 42 -23 73 -123 160 -84 75 -100 72 -204 -32 -76 -76
-83 -87 -83 -122 0 -36 7 -47 82 -122 76 -76 86 -83 123 -83 40 0 43 -3 323
-303 156 -166 284 -305 285 -309 1 -4 -299 -289 -668 -633 l-670 -626 -33 38
c-141 159 -289 462 -357 727 -45 177 -59 291 -59 486 0 326 67 609 212 895 55
108 165 279 219 342 l28 32 139 -77 c119 -67 146 -87 195 -144 102 -120 143
-140 204 -100 36 24 77 81 77 107 0 34 -45 89 -127 155 -86 70 -266 265 -260
283 5 17 108 99 207 165 394 263 886 373 1370 306z m2556 -82 c397 -598 592
-1274 571 -1977 -22 -722 -259 -1388 -696 -1959 -108 -141 -107 -140 -122
-134 -12 5 -761 699 -878 813 l-44 43 30 39 c61 76 162 240 216 348 154 309
221 599 221 950 0 345 -72 648 -224 948 l-68 132 452 453 c248 248 455 452
461 452 5 0 42 -49 81 -108z m-2192 -2762 l616 -655 -33 -28 c-115 -101 -411
-260 -598 -321 -209 -68 -395 -96 -631 -96 -324 0 -600 65 -890 210 -91 46
-249 144 -317 199 l-24 19 374 398 c206 219 487 518 624 665 138 147 253 267
256 266 4 -1 284 -297 623 -657z m1149 -1225 c235 -250 427 -458 427 -464 0
-14 -213 -177 -350 -266 -435 -285 -893 -455 -1432 -532 -176 -25 -690 -25
-868 0 -628 88 -1182 321 -1668 700 -101 79 -102 80 -85 101 17 19 764 818
824 880 l27 29 39 -30 c137 -108 388 -245 573 -313 332 -122 741 -157 1090
-94 334 60 665 203 910 393 36 27 70 50 76 50 5 1 202 -204 437 -454z"/>
<path d="M2346 3533 c-27 -56 -32 -140 -12 -201 21 -61 84 -135 139 -164 74
-37 207 -34 262 6 18 13 15 15 -36 39 -114 55 -243 184 -297 299 -15 32 -30
58 -33 58 -3 0 -13 -17 -23 -37z"/>
<path d="M8439 3503 c-49 -98 -180 -227 -276 -273 -40 -19 -71 -39 -69 -45 1
-5 25 -18 52 -28 62 -24 162 -19 219 11 47 24 106 83 130 132 35 68 30 195
-10 253 -11 15 -16 9 -46 -50z"/>
<path d="M7999 2238 c-5 -98 2 -363 9 -370 22 -22 42 4 67 87 38 124 40 125
185 125 l120 0 0 -473 c0 -539 4 -512 -80 -523 -53 -7 -76 -24 -66 -49 5 -13
38 -15 225 -15 137 0 222 4 226 10 3 6 4 19 0 29 -4 13 -19 20 -58 24 -92 11
-87 -20 -87 523 l0 474 123 0 c148 0 143 3 182 -123 16 -49 34 -91 42 -94 33
-13 38 12 38 199 l0 183 -28 3 c-15 2 -27 -2 -27 -8 0 -6 -11 -22 -25 -35
l-24 -25 -361 0 -361 0 -24 25 c-14 13 -25 29 -25 35 0 15 -50 13 -51 -2z"/>
<path d="M3835 2201 l-60 -28 -174 -523 c-102 -307 -181 -530 -192 -541 -11
-11 -31 -19 -46 -19 -39 0 -55 -13 -51 -41 l3 -24 185 0 185 0 0 25 c0 22 -6
26 -49 35 -82 18 -82 8 0 293 l16 52 161 -2 161 -3 43 -135 c23 -74 41 -146
40 -160 -2 -25 -8 -28 -105 -46 -19 -4 -23 -10 -20 -32 l3 -27 225 0 225 0 3
27 c3 24 -1 27 -39 33 -68 12 -90 42 -142 200 -38 117 -241 765 -281 899 -6
22 -16 41 -21 42 -6 2 -37 -10 -70 -25z m44 -448 c33 -111 61 -206 61 -212 0
-7 -45 -11 -131 -11 -120 0 -130 1 -125 18 3 9 17 58 31 107 32 113 96 307
100 303 1 -2 30 -94 64 -205z"/>
<path d="M7288 2200 l-56 -29 -167 -503 c-92 -277 -174 -517 -182 -535 -11
-23 -24 -34 -46 -38 -65 -13 -68 -16 -65 -43 l3 -27 185 0 185 0 0 24 c0 21
-7 26 -54 37 -29 6 -57 17 -61 24 -7 12 4 61 58 250 l19 65 163 0 163 0 44
-148 c24 -82 42 -155 39 -162 -3 -8 -22 -17 -43 -20 -72 -12 -81 -15 -87 -31
-14 -37 6 -40 236 -40 l223 1 0 25 c0 21 -8 26 -53 40 -30 8 -60 24 -68 35
-17 24 -82 220 -234 715 -62 201 -117 371 -123 378 -12 16 -13 16 -79 -18z
m46 -443 c32 -105 61 -200 64 -209 4 -17 -7 -18 -127 -18 -77 0 -131 4 -131
10 0 5 22 83 50 172 68 224 73 238 79 238 3 0 33 -87 65 -193z"/>
<path d="M1912 2187 c-20 -24 -3 -45 41 -52 23 -4 53 -14 66 -22 l24 -15 -7
-272 c-11 -434 -27 -685 -46 -716 -4 -7 -34 -19 -67 -25 -52 -10 -58 -14 -58
-36 l0 -24 203 -3 203 -2 -3 27 c-3 24 -9 28 -58 38 -42 8 -57 16 -67 35 -9
19 -12 103 -12 330 1 168 4 335 8 372 l6 68 161 -418 c148 -385 162 -417 184
-417 21 0 38 36 201 429 176 427 177 428 183 380 11 -93 17 -739 7 -753 -5 -8
-35 -19 -68 -26 -52 -10 -58 -14 -61 -38 l-3 -27 226 0 226 0 -3 27 c-3 24 -9
28 -61 38 -33 7 -62 17 -67 25 -12 19 -18 143 -32 584 l-12 399 22 17 c12 10
42 21 67 24 39 6 45 10 45 32 0 14 -7 27 -15 30 -8 4 -74 2 -146 -2 l-130 -9
-167 -403 c-91 -221 -169 -399 -173 -395 -3 5 -75 184 -159 398 -84 215 -155
393 -159 396 -3 4 -69 10 -146 14 -118 6 -143 5 -153 -8z"/>
<path d="M4533 2184 c-10 -27 5 -39 68 -54 58 -14 64 -18 70 -45 9 -39 11
-889 3 -938 -8 -43 -25 -56 -93 -66 -41 -5 -46 -9 -46 -31 l0 -25 220 0 220 0
0 25 c0 22 -5 26 -53 33 -83 13 -83 14 -80 288 2 181 6 234 16 234 16 0 412
-471 412 -490 0 -17 -15 -26 -54 -35 -25 -4 -31 -11 -31 -30 l0 -25 220 0
c219 0 220 0 223 22 3 17 -3 24 -25 29 -75 18 -104 46 -348 330 -200 233 -243
289 -236 303 12 22 243 246 339 329 83 71 111 87 169 97 41 6 57 23 47 48 -7
20 -400 21 -408 1 -10 -26 5 -41 47 -50 75 -16 67 -29 -145 -240 -107 -107
-202 -194 -211 -194 -15 0 -17 19 -17 193 0 139 3 198 13 210 6 9 37 22 67 30
48 11 55 16 55 38 l0 24 -218 1 c-173 1 -220 -2 -224 -12z"/>
<path d="M5797 2176 c-10 -25 17 -43 72 -50 92 -10 86 28 86 -515 0 -390 -3
-481 -14 -494 -12 -16 -45 -28 -114 -42 -22 -4 -28 -11 -25 -28 l3 -22 393 -3
392 -2 10 24 c13 35 50 231 50 267 0 24 -4 29 -23 29 -19 0 -28 -13 -56 -81
-19 -45 -46 -96 -61 -113 l-28 -31 -161 -3 c-103 -2 -167 1 -180 8 -20 10 -21
19 -21 245 l0 235 124 0 c98 0 128 -3 140 -15 8 -8 22 -49 31 -91 15 -67 20
-75 39 -72 21 3 21 7 24 209 2 186 1 207 -14 213 -24 9 -33 -3 -50 -70 -9 -32
-20 -65 -26 -71 -7 -9 -48 -13 -139 -13 l-129 0 0 189 c0 159 3 192 16 205 22
22 242 23 284 1 26 -13 68 -85 93 -157 8 -22 45 -24 53 -3 5 13 -17 175 -33
243 l-5 22 -363 0 c-302 0 -364 -2 -368 -14z"/>
</g>
</svg>
