<?xml version="1.0" standalone="no"?>
<!DOCTYPE svg PUBLIC "-//W3C//DTD SVG 20010904//EN"
 "http://www.w3.org/TR/2001/REC-SVG-20010904/DTD/svg10.dtd">
<svg version="1.0" xmlns="http://www.w3.org/2000/svg"
 width="1080.000000pt" height="1080.000000pt" viewBox="0 0 1080.000000 1080.000000"
 preserveAspectRatio="xMidYMid meet">

<g transform="translate(0.000000,1080.000000) scale(0.100000,-0.100000)"
fill="#000000" stroke="none">
<path d="M5060 10584 c-632 -55 -1089 -158 -1605 -361 -552 -218 -1011 -496
-1536 -932 l-36 -30 -224 241 c-258 279 -578 608 -590 608 -14 0 -77 -122
-104 -204 -76 -228 -49 -465 85 -744 63 -131 136 -248 232 -375 54 -71 67
-107 39 -107 -13 0 -164 203 -224 300 -159 259 -233 522 -207 732 15 126 62
252 130 353 45 67 44 72 -5 20 -214 -227 -276 -517 -175 -825 56 -171 181
-383 330 -560 39 -47 74 -90 76 -96 3 -6 -39 -69 -92 -140 -614 -815 -972
-1781 -1045 -2819 -15 -212 -6 -684 16 -885 115 -1055 527 -2032 1194 -2830
39 -47 71 -88 71 -91 0 -4 -110 -109 -245 -234 -135 -126 -245 -235 -245 -243
0 -26 68 -154 115 -217 62 -84 177 -199 260 -261 77 -57 191 -118 205 -109 5
3 115 118 245 255 l236 249 133 -107 c401 -321 877 -597 1355 -787 1479 -586
3158 -476 4540 297 270 151 496 304 749 506 l144 115 27 -29 c15 -16 126 -134
246 -262 184 -197 221 -231 239 -226 141 44 363 222 478 384 51 72 98 159 98
183 0 9 -119 127 -265 263 -228 212 -263 249 -253 263 7 9 33 41 59 71 88 105
243 316 335 455 713 1086 998 2369 813 3660 -117 816 -441 1622 -922 2294
l-60 83 454 454 c303 303 447 454 434 454 -11 -1 -112 -22 -224 -49 l-203 -48
-307 -307 -307 -307 -64 76 -63 77 439 439 c241 241 437 439 434 439 -3 0
-101 -27 -219 -59 l-214 -59 -298 -298 c-164 -164 -300 -296 -302 -294 -1 3
-32 36 -67 73 l-64 68 434 434 c239 239 433 435 430 435 -3 0 -101 -27 -219
-59 l-214 -59 -296 -296 c-163 -163 -300 -296 -305 -296 -7 0 -46 31 -141 112
-6 5 170 189 435 454 245 245 436 444 425 441 -11 -3 -112 -27 -225 -52 l-205
-47 -317 -316 -317 -316 -53 38 c-777 556 -1588 871 -2533 987 -137 16 -241
21 -535 24 -201 1 -385 1 -410 -1z m855 -228 c499 -54 929 -159 1385 -339 186
-74 538 -247 710 -351 147 -88 412 -267 417 -281 2 -6 -302 -315 -676 -689
l-678 -678 -54 32 c-388 226 -833 370 -1299 421 -139 15 -475 14 -625 -1 -609
-60 -1207 -303 -1673 -677 -58 -47 -110 -87 -117 -89 -6 -3 -78 71 -161 163
-253 285 -688 767 -907 1007 l-208 228 42 37 c828 716 1867 1146 2974 1230
171 13 702 5 870 -13z m2830 -1220 l40 -35 -450 -451 c-247 -248 -551 -550
-675 -670 l-226 -218 -79 61 -79 61 679 672 679 672 36 -29 c19 -15 53 -44 75
-63z m278 -264 l68 -68 -672 -668 -671 -668 -72 72 -71 72 670 663 c369 366
672 665 675 665 3 0 36 -31 73 -68z m297 -320 l53 -64 -504 -504 c-277 -278
-583 -581 -680 -675 l-177 -169 -56 75 c-31 41 -56 78 -56 82 -1 4 302 308
672 675 500 495 676 664 684 655 6 -7 34 -40 64 -75z m-7375 -452 c251 -214
542 -436 848 -644 86 -59 157 -110 157 -113 0 -12 -359 227 -578 387 -401 292
-916 748 -898 796 5 13 43 -19 184 -157 97 -96 226 -217 287 -269z m-301 121
c276 -241 688 -539 1110 -801 91 -57 166 -107 166 -112 0 -5 -27 -45 -60 -88
-155 -204 -316 -486 -413 -725 -425 -1044 -260 -2242 430 -3132 l63 -82 -222
-209 c-545 -511 -1160 -1082 -1166 -1082 -21 2 -268 325 -397 520 -425 639
-702 1376 -799 2122 -43 327 -55 821 -28 1103 64 652 218 1209 491 1770 151
310 307 567 497 820 l86 115 90 -82 c50 -46 118 -107 152 -137z m8043 -167
c431 -663 700 -1427 790 -2244 22 -206 25 -776 5 -970 -102 -972 -429 -1818
-997 -2575 -62 -82 -133 -172 -157 -200 l-46 -50 -23 20 c-89 77 -1359 1267
-1359 1273 0 5 21 35 46 68 126 161 274 407 366 609 329 718 376 1540 132
2297 -61 190 -167 431 -253 577 -17 28 -31 58 -31 65 0 7 306 318 681 691
l680 677 47 -63 c25 -35 79 -114 119 -175z m-4006 206 c319 -32 626 -110 909
-232 129 -56 320 -157 320 -169 0 -5 -13 -30 -29 -56 -16 -27 -42 -84 -57
-128 -24 -69 -28 -96 -29 -195 0 -155 32 -263 111 -373 l36 -49 -35 -37 c-47
-49 -87 -110 -87 -133 0 -46 67 -133 140 -182 55 -36 125 -12 203 71 l28 30
64 -42 c120 -81 227 -109 389 -103 122 5 204 27 289 79 26 16 51 29 56 29 14
0 128 -229 187 -376 294 -734 277 -1577 -49 -2300 -90 -201 -261 -486 -360
-599 l-34 -39 -204 190 c-112 105 -557 520 -989 923 -432 403 -785 736 -785
742 0 5 191 214 425 464 l425 455 38 -5 c57 -8 93 14 214 131 92 90 113 116
118 146 12 66 -1 88 -129 216 l-122 122 -54 0 -54 0 -129 -129 -129 -128 3
-54 3 -54 -463 -433 c-255 -238 -468 -431 -473 -430 -5 2 -216 196 -468 431
l-460 428 1 48 c2 65 -15 91 -128 202 -109 108 -126 119 -178 119 -54 0 -80
-18 -197 -137 -115 -117 -133 -153 -108 -212 6 -16 64 -80 128 -144 120 -119
139 -129 213 -124 22 2 88 -64 452 -452 235 -250 427 -457 427 -461 0 -9
-2001 -1875 -2011 -1875 -12 0 -95 109 -185 245 -245 370 -398 783 -466 1255
-20 141 -17 620 5 770 77 514 262 961 565 1368 46 62 87 116 91 120 4 4 97
-42 206 -103 109 -60 202 -110 205 -110 4 0 45 -47 93 -104 108 -131 175 -186
226 -186 72 0 182 99 197 177 12 61 -68 158 -232 283 -51 38 -255 254 -343
363 -12 15 -11 21 10 43 13 14 68 59 122 101 447 342 995 555 1562 606 92 8
431 6 526 -3z m-2491 -1066 c0 -2 -9 0 -20 6 -11 6 -20 13 -20 16 0 2 9 0 20
-6 11 -6 20 -13 20 -16z m3171 -3208 c505 -539 919 -982 919 -986 0 -10 -160
-128 -271 -200 -129 -84 -417 -226 -574 -284 -214 -79 -468 -138 -720 -167
-149 -18 -505 -15 -660 5 -526 67 -1026 266 -1422 566 -37 28 -68 55 -68 60 0
13 1859 1990 1868 1987 5 -1 422 -443 928 -981z m1720 -1832 c354 -377 644
-689 644 -693 0 -22 -313 -263 -514 -396 -671 -443 -1420 -712 -2251 -811
-182 -22 -727 -30 -931 -15 -1067 82 -2074 489 -2888 1170 l-34 28 623 664
c343 365 635 677 650 692 l27 29 106 -79 c437 -324 935 -522 1507 -600 157
-21 576 -24 730 -5 596 73 1125 282 1566 618 60 45 112 83 115 83 3 1 296
-308 650 -685z"/>
<path d="M836 1278 c-102 -210 -16 -458 193 -561 63 -30 72 -32 181 -32 104 0
121 3 173 27 31 15 57 31 57 35 0 5 -22 17 -49 27 -109 39 -267 164 -368 291
-60 76 -143 221 -143 251 0 29 -19 12 -44 -38z"/>
<path d="M9977 1282 c-67 -186 -333 -446 -520 -508 l-50 -17 24 -18 c71 -54
239 -76 346 -44 235 70 359 347 254 570 -16 36 -32 65 -33 65 -2 0 -12 -22
-21 -48z"/>
</g>
</svg>
